<svg xmlns="http://www.w3.org/2000/svg" viewBox="0 0 2168.62 678.01"><defs><style>.cls-1{fill:#3758f9;}.cls-2{font-size:350px;font-family:Kanit-Regular, Kanit;}.cls-3{letter-spacing:-0.02em;}.cls-4{letter-spacing:0em;}.cls-5{letter-spacing:0em;}.cls-6{letter-spacing:-0.03em;}.cls-7{letter-spacing:0em;}.cls-8{letter-spacing:0em;}.cls-9{font-size:230px;fill:#0bb489;font-family:Kanit-Medium, Kanit;font-weight:500;}</style></defs><g id="Capa_2" data-name="Capa 2"><g id="Capa_1-2" data-name="Capa 1"><path class="cls-1" d="M294.51,39c0,11.16.23,22.33-.11,33.48-.15,4.87,1.65,6.82,6.27,7.51a258.42,258.42,0,0,1,87.87,30.07A264.05,264.05,0,0,1,455.38,163c23.84,26.05,40.95,56,53.12,89,4.59,12.45,7.28,25.42,10.45,38.25.71,2.89-1.52,2.71-3.35,2.72-5.33,0-10.66.09-16,.09-15.66,0-31.32-.13-47,0-3.16,0-4.74-.86-5.76-4-5-15.27-10.39-30.41-18.47-44.36-22.64-39.1-54.73-67.34-96.9-84.07a186.84,186.84,0,0,0-75-13.34c-41,1.16-78.14,13.81-110.69,39C106.7,216.52,82.16,256,73.13,304.7,64.93,349,72.27,391,93.57,430.43A189.23,189.23,0,0,0,240.68,529c42.71,4.54,82.6-4.16,119.39-26.18s63.17-52.84,79.07-92.62c2.88-7.22,5.38-14.6,7.78-22,.82-2.51,2-3.34,4.58-3.33,21.32.07,42.65.1,64-.1,4.34,0,3.07,2.54,2.68,4.56a249.19,249.19,0,0,1-11.6,41.53c-15,39.43-37.9,73.49-69.28,101.77a258.87,258.87,0,0,1-82.78,50.44,306.59,306.59,0,0,1-54.6,14.84c-4,.71-5.68,2.12-5.61,6.79.33,23,.07,46,.18,69,0,3.2-.78,4.39-4.15,4.36-20.49-.14-41-.12-61.47-.1-2.45,0-3.8,0-3.66-3.44.4-10.61.22-21.24.24-31.87q0-17.94,0-35.88c0-8-.38-8.26-7.93-9.76-41.72-8.27-80-24.05-114.09-50.07A262.86,262.86,0,0,1,25.07,451c-14-29.05-21.8-59.87-24.26-92.12-4.06-53,7.22-102.53,33-148.72,21.1-37.85,50.37-68.25,86.8-91.79a255.84,255.84,0,0,1,78-33.63c7.07-1.75,14.2-3.29,21.37-4.55,3.53-.62,5-1.8,5-5.71-.18-19.82.07-39.65-.1-59.48,0-4.11,1.1-8.14.21-12.36-.65-3.07,2.29-2.5,4.16-2.51q19.5,0,39,0c7.5,0,15,.14,22.49-.07,3.15-.1,3.93,1,3.89,4-.15,11.66-.06,23.32-.06,35Z"/><path class="cls-1" d="M248.05,369.34h75c10.63,0,20.43,2.13,27.92,10.52,9.58,10.72,13.18,23.13,8.06,36.62-4.92,13-14.83,20.81-29,22.61a106.26,106.26,0,0,1-13.45.82c-48.15,0-96.3-.06-144.45.11-4.64,0-5.93-1.23-5.87-5.87q.42-30.22.09-60.46c0-4,1.34-4.67,4.89-4.66,25.63.13,51.26.07,76.89.07Z"/><path class="cls-1" d="M247.72,306.9c-25.32,0-50.65-.09-76,.09-4.05,0-5.53-1.06-5.5-5.22q.21-31,0-61.94c0-3,1.41-3.18,3.66-3.2,8.8-.08,17.6-.38,26.39-.37q62.22,0,124.44.18c9.54,0,18.82.48,26.77,7.07a36.76,36.76,0,0,1,12,38.8c-3.2,11.18-16.21,22.15-28.87,23.78-13.11,1.69-26.27.62-39.41.79-14.49.2-29,.05-43.48.05Z"/><text class="cls-2" transform="translate(644.23 342.01)">c<tspan class="cls-3" x="165.9" y="0">r</tspan><tspan class="cls-4" x="284.55" y="0">edit</tspan><tspan class="cls-5" x="901.59" y="0">o</tspan><tspan x="1103.19" y="0">s</tspan></text><text class="cls-2" transform="translate(575.34 538.31)">ba<tspan class="cls-6" x="395.14" y="0">r</tspan><tspan class="cls-7" x="510.29" y="0">at</tspan><tspan class="cls-8" x="827.39" y="0">o</tspan><tspan x="1028.99" y="0">s</tspan></text><text class="cls-9" transform="translate(1769.81 538.31)">app</text></g></g></svg>