<?xml version="1.0" encoding="utf-8"?>
<!-- Generator: Adobe Illustrator 24.1.0, SVG Export Plug-In . SVG Version: 6.00 Build 0)  -->
<svg version="1.1" id="Capa_1" xmlns="http://www.w3.org/2000/svg" xmlns:xlink="http://www.w3.org/1999/xlink" x="0px" y="0px"
	 viewBox="0 0 174 40" style="enable-background:new 0 0 174 40;" xml:space="preserve">
<style type="text/css">
	.st0{clip-path:url(#SVGID_2_);}
	.st1{fill:url(#SVGID_3_);}
	.st2{fill:url(#SVGID_4_);fill-opacity:0.56;}
	.st3{fill:#FFFFFF;}
	.st4{opacity:0.56;fill:#FFFFFF;enable-background:new    ;}
	.st5{opacity:0.4;fill:#FFFFFF;enable-background:new    ;}
	.st6{opacity:0.72;fill:#FFFFFF;enable-background:new    ;}
	.st7{opacity:0.88;fill:#FFFFFF;enable-background:new    ;}
	.st8{opacity:0.96;fill:#FFFFFF;enable-background:new    ;}
	.st9{font-family:'Kanit-Medium';}
	.st10{font-size:20px;}
</style>
<g>
	<defs>
		<rect id="SVGID_1_" x="0.5" width="173" height="40"/>
	</defs>
	<clipPath id="SVGID_2_">
		<use xlink:href="#SVGID_1_"  style="overflow:visible;"/>
	</clipPath>
	<g class="st0">
		
			<linearGradient id="SVGID_3_" gradientUnits="userSpaceOnUse" x1="18.5" y1="40" x2="18.5" y2="4" gradientTransform="matrix(1 0 0 -1 0 42)">
			<stop  offset="0" style="stop-color:#3558EA"/>
			<stop  offset="1" style="stop-color:#0000FF"/>
		</linearGradient>
		<path class="st1" d="M36.5,20c0-9.9-8.1-18-18-18c-9.9,0-18,8.1-18,18s8.1,18,18,18C28.4,38,36.5,29.9,36.5,20z"/>
		
			<linearGradient id="SVGID_4_" gradientUnits="userSpaceOnUse" x1="22.837" y1="34.9224" x2="6.9806" y2="-12.3231" gradientTransform="matrix(1 0 0 -1 0 42)">
			<stop  offset="0.2156" style="stop-color:#1E1983;stop-opacity:0"/>
			<stop  offset="0.4472" style="stop-color:#1E1983;stop-opacity:0.19"/>
			<stop  offset="0.6198" style="stop-color:#1E1983"/>
		</linearGradient>
		<path class="st2" d="M36.5,20c0-9.9-8.1-18-18-18c-9.9,0-18,8.1-18,18s8.1,18,18,18C28.4,38,36.5,29.9,36.5,20z"/>
		<path class="st3" d="M18.8,8.8c2.9,0,5.5,1.1,7.6,3c0.1,0.1,0.1,0.3,0,0.4L22,16.5c-0.1,0.1-0.3,0.1-0.4,0c-0.8-0.7-1.8-1-2.8-1
			c-2.5,0-4.5,2-4.5,4.5H7.5C7.5,13.8,12.6,8.8,18.8,8.8z"/>
		<path class="st3" d="M14.3,20c0,2.3,1.8,4.2,4,4.4c0.2,0,0.3,0.1,0.3,0.3V31c0,0.2-0.1,0.3-0.3,0.3C12.3,31,7.5,26,7.5,20H14.3z"
			/>
		<path class="st4" d="M25.5,20.9h-2.7c-0.2,0-0.3,0.1-0.3,0.3v2.7c0,0.2,0.1,0.3,0.3,0.3h2.7c0.2,0,0.3-0.1,0.3-0.3v-2.7
			C25.8,21,25.6,20.9,25.5,20.9z"/>
		<path class="st5" d="M29,20.9h-2.7c-0.2,0-0.3,0.1-0.3,0.3v2.7c0,0.2,0.1,0.3,0.3,0.3H29c0.2,0,0.3-0.1,0.3-0.3v-2.7
			C29.3,21,29.2,20.9,29,20.9z"/>
		<path class="st6" d="M25.5,24.5h-2.7c-0.2,0-0.3,0.1-0.3,0.3v2.7c0,0.2,0.1,0.3,0.3,0.3h2.7c0.2,0,0.3-0.1,0.3-0.3v-2.7
			C25.8,24.6,25.6,24.5,25.5,24.5z"/>
		<path class="st7" d="M21.9,24.5h-2.7c-0.2,0-0.3,0.1-0.3,0.3v2.7c0,0.2,0.1,0.3,0.3,0.3h2.7c0.2,0,0.3-0.1,0.3-0.3v-2.7
			C22.2,24.6,22.1,24.5,21.9,24.5z"/>
		<path class="st4" d="M29,24.5h-2.7c-0.2,0-0.3,0.1-0.3,0.3v2.7c0,0.2,0.1,0.3,0.3,0.3H29c0.2,0,0.3-0.1,0.3-0.3v-2.7
			C29.3,24.6,29.2,24.5,29,24.5z"/>
		<path class="st7" d="M25.5,28h-2.7c-0.2,0-0.3,0.1-0.3,0.3V31c0,0.2,0.1,0.3,0.3,0.3h2.7c0.2,0,0.3-0.1,0.3-0.3v-2.7
			C25.8,28.2,25.6,28,25.5,28z"/>
		<path class="st8" d="M21.9,28h-2.7c-0.2,0-0.3,0.1-0.3,0.3V31c0,0.2,0.1,0.3,0.3,0.3h2.7c0.2,0,0.3-0.1,0.3-0.3v-2.7
			C22.2,28.2,22.1,28,21.9,28z"/>
		<path class="st6" d="M29,28h-2.7c-0.2,0-0.3,0.1-0.3,0.3V31c0,0.2,0.1,0.3,0.3,0.3H29c0.2,0,0.3-0.1,0.3-0.3v-2.7
			C29.3,28.2,29.2,28,29,28z"/>
		<text transform="matrix(1 0 0 1 40.8193 26.0719)" class="st3 st9 st10">Banco capital</text>
	</g>
</g>
</svg>
