<svg xmlns="http://www.w3.org/2000/svg" xmlns:xlink="http://www.w3.org/1999/xlink" viewBox="0 0 164.67 36"><defs><style>.cls-1{fill:none;}.cls-2{clip-path:url(#clip-path);}.cls-3{fill:url(#Degradado_sin_nombre);}.cls-4{fill-opacity:0.56;fill:url(#Degradado_sin_nombre_2);}.cls-10,.cls-5,.cls-6,.cls-7,.cls-8,.cls-9{fill:#fff;}.cls-6{opacity:0.56;}.cls-10,.cls-6,.cls-7,.cls-8,.cls-9{isolation:isolate;}.cls-7{opacity:0.4;}.cls-8{opacity:0.72;}.cls-9{opacity:0.88;}.cls-10{opacity:0.96;}.cls-11{font-size:20px;font-family:Kanit-Medium, Kanit;font-weight:500;}.cls-12{letter-spacing:-0.02em;}.cls-13{letter-spacing:0em;}.cls-14{letter-spacing:-0.02em;}</style><clipPath id="clip-path" transform="translate(0 -2)"><rect class="cls-1" width="173" height="40"/></clipPath><linearGradient id="Degradado_sin_nombre" x1="18" y1="40" x2="18" y2="4" gradientTransform="matrix(1, 0, 0, -1, 0, 42)" gradientUnits="userSpaceOnUse"><stop offset="0" stop-color="#3558ea"/><stop offset="1" stop-color="blue"/></linearGradient><linearGradient id="Degradado_sin_nombre_2" x1="22.34" y1="34.92" x2="6.48" y2="-12.32" gradientTransform="matrix(1, 0, 0, -1, 0, 42)" gradientUnits="userSpaceOnUse"><stop offset="0.22" stop-color="#1e1983" stop-opacity="0"/><stop offset="0.45" stop-color="#1e1983" stop-opacity="0.19"/><stop offset="0.62" stop-color="#1e1983"/></linearGradient></defs><g id="Capa_2" data-name="Capa 2"><g id="Capa_1-2" data-name="Capa 1"><g class="cls-2"><path class="cls-3" d="M36,20A18,18,0,1,0,18,38,18,18,0,0,0,36,20Z" transform="translate(0 -2)"/><path class="cls-4" d="M36,20A18,18,0,1,0,18,38,18,18,0,0,0,36,20Z" transform="translate(0 -2)"/><path class="cls-5" d="M18.29,8.75a11.17,11.17,0,0,1,7.62,3,.28.28,0,0,1,0,.4l-4.41,4.41a.29.29,0,0,1-.4,0,4.42,4.42,0,0,0-2.82-1A4.47,4.47,0,0,0,13.82,20H7A11.27,11.27,0,0,1,18.29,8.75Z" transform="translate(0 -2)"/><path class="cls-5" d="M13.82,20a4.46,4.46,0,0,0,4,4.44.3.3,0,0,1,.27.29V31a.28.28,0,0,1-.29.28A11.26,11.26,0,0,1,7,20Z" transform="translate(0 -2)"/><path class="cls-6" d="M25,20.89H22.32a.29.29,0,0,0-.28.28v2.66a.29.29,0,0,0,.28.28H25a.29.29,0,0,0,.29-.28V21.17A.29.29,0,0,0,25,20.89Z" transform="translate(0 -2)"/><path class="cls-7" d="M28.55,20.89H25.89a.29.29,0,0,0-.28.28v2.66a.29.29,0,0,0,.28.28h2.66a.29.29,0,0,0,.28-.28V21.17A.29.29,0,0,0,28.55,20.89Z" transform="translate(0 -2)"/><path class="cls-8" d="M25,24.46H22.32a.29.29,0,0,0-.28.29V27.4a.29.29,0,0,0,.28.28H25a.29.29,0,0,0,.29-.28V24.75A.29.29,0,0,0,25,24.46Z" transform="translate(0 -2)"/><path class="cls-9" d="M21.4,24.46H18.75a.28.28,0,0,0-.28.29V27.4a.28.28,0,0,0,.28.28H21.4a.28.28,0,0,0,.28-.28V24.75A.28.28,0,0,0,21.4,24.46Z" transform="translate(0 -2)"/><path class="cls-6" d="M28.55,24.46H25.89a.29.29,0,0,0-.28.29V27.4a.29.29,0,0,0,.28.28h2.66a.29.29,0,0,0,.28-.28V24.75A.29.29,0,0,0,28.55,24.46Z" transform="translate(0 -2)"/><path class="cls-9" d="M25,28H22.32a.29.29,0,0,0-.28.29V31a.29.29,0,0,0,.28.28H25a.29.29,0,0,0,.29-.28V28.32A.29.29,0,0,0,25,28Z" transform="translate(0 -2)"/><path class="cls-10" d="M21.4,28H18.75a.28.28,0,0,0-.28.29V31a.28.28,0,0,0,.28.28H21.4a.28.28,0,0,0,.28-.28V28.32A.28.28,0,0,0,21.4,28Z" transform="translate(0 -2)"/><path class="cls-8" d="M28.55,28H25.89a.29.29,0,0,0-.28.29V31a.29.29,0,0,0,.28.28h2.66a.29.29,0,0,0,.28-.28V28.32A.29.29,0,0,0,28.55,28Z" transform="translate(0 -2)"/><text class="cls-11" transform="translate(41.1 24.87)">Ba<tspan class="cls-12" x="23.8" y="0">n</tspan><tspan class="cls-13" x="35.22" y="0">co ca</tspan><tspan class="cls-14" x="82" y="0">p</tspan><tspan x="93.4" y="0">ital</tspan></text></g></g></g></svg>